<?xml version="1.0" encoding="utf-8"?>
<!-- Generator: Adobe Illustrator 28.6.0, SVG Export Plug-In . SVG Version: 9.03 Build 54939)  -->
<svg version="1.1" id="Laag_1" xmlns="http://www.w3.org/2000/svg" xmlns:xlink="http://www.w3.org/1999/xlink" x="0px" y="0px"
	 viewBox="0 0 60 60" style="enable-background:new 0 0 60 60;" xml:space="preserve">
<style type="text/css">
	.st0{fill:#FFFFFF;}
</style>
<path class="st0" d="M41.1,11.5l-9.3,9.2c-1,1-2.6,1-3.7,0l-9.2-9.2c-1-1-2.3-1.5-3.7-1.5s-2.8,0.6-3.7,1.5S10,13.9,10,15.2
	s0.6,2.7,1.5,3.7l9.2,9.2c1,1,1,2.6,0,3.7l-9.2,9.2c-1,1-1.5,2.3-1.5,3.7s0.6,2.7,1.5,3.7c1,1,2.3,1.5,3.7,1.5s2.7-0.6,3.7-1.5
	l9.2-9.2c1-1,2.6-1,3.7,0l9.2,9.2l0,0c1,1,2.3,1.5,3.7,1.5c1.4,0,2.7-0.6,3.7-1.5c1-1,1.5-2.3,1.5-3.7s-0.6-2.7-1.5-3.7l-9.2-9.2
	c-1-1-1-2.6,0-3.7l9.2-9.2c1-1,1.5-2.3,1.5-3.7s-0.6-2.7-1.5-3.7c-1-0.9-2.3-1.4-3.7-1.4S42.1,10.6,41.1,11.5L41.1,11.5z"/>
</svg>
