<?xml version="1.0" encoding="utf-8"?>
<!-- Generator: Adobe Illustrator 28.6.0, SVG Export Plug-In . SVG Version: 9.03 Build 54939)  -->
<svg version="1.1" id="Laag_1" xmlns="http://www.w3.org/2000/svg" xmlns:xlink="http://www.w3.org/1999/xlink" x="0px" y="0px"
	 viewBox="0 0 200 200" style="enable-background:new 0 0 200 200;" xml:space="preserve">
<style type="text/css">
	.Slagschaduw{fill:none;}
	.Buitenste_x0020_gloed_x0020_5_x0020_pt{fill:none;}
	.Blauw_x0020_neon{fill:none;stroke:#8AACDA;stroke-width:7;stroke-linecap:round;stroke-linejoin:round;}
	.Hooglicht_x002C__x0020_chroom{fill:url(#SVGID_1_);stroke:#FFFFFF;stroke-width:0.3629;stroke-miterlimit:1;}
	.Jive_AS{fill:#FFDD00;}
	.Alyssa_AS{fill:#A6D0E4;}
	.st0{fill:#2B2E4A;}
	.st1{opacity:0.4;fill:#53354A;}
	.st2{fill:#E84545;}
	.st3{fill:#FFFFFF;}
</style>
<linearGradient id="SVGID_1_" gradientUnits="userSpaceOnUse" x1="0" y1="0" x2="6.123234e-17" y2="-1">
	<stop  offset="0" style="stop-color:#656565"/>
	<stop  offset="0.618" style="stop-color:#1B1B1B"/>
	<stop  offset="0.6292" style="stop-color:#545454"/>
	<stop  offset="0.9831" style="stop-color:#3E3E3E"/>
</linearGradient>
<path class="st0" d="M171,200H29c-16,0-29-13-29-29V29C0,13,13,0,29,0h142c16,0,29,13,29,29v142C200,187,187,200,171,200z"/>
<path class="st1" d="M199,179c-6.1-41.9-48.2-74.4-99.2-74.4c-50.6,0-92.3,31.9-99,73.3C3.7,190.6,15,200,28.6,200h142.9
	C184.6,200,195.6,191.1,199,179z"/>
<g>
	<g>
		<g>
			<g>
				<path class="st2" d="M100,79.5c-2.7,0-5.4-0.4-8.1-1.3c-5.5-1.8-10.3-5.3-13.6-10.1l-31-44.7c-0.7-1-0.4-2.4,0.6-3.1
					c1-0.7,2.4-0.4,3.1,0.6l31,44.7c2.7,4,6.8,6.9,11.4,8.4c4.4,1.4,9,1.4,13.4,0c4.6-1.5,8.6-4.5,11.4-8.4l31-44.7
					c0.7-1,2.1-1.2,3.1-0.6c1,0.7,1.2,2.1,0.6,3.1l-31,44.7c-3.3,4.7-8.1,8.3-13.6,10.1C105.4,79.1,102.7,79.5,100,79.5z"/>
			</g>
		</g>
		<g>
			<g>
				<path class="st2" d="M100,150.7c-1.2,0-2.2-1-2.2-2.2V77.3c0-1.2,1-2.2,2.2-2.2c1.2,0,2.2,1,2.2,2.2v71.2
					C102.2,149.8,101.2,150.7,100,150.7z"/>
			</g>
		</g>
	</g>
	<g>
		<g>
			<path class="st2" d="M100,155.4c-9.1,0-17.7-0.5-24.2-1.4c-8.5-1.2-11.8-2.7-11.8-5.5c0-2.8,3.3-4.3,11.8-5.5
				c6.5-0.9,15.1-1.4,24.2-1.4c9.1,0,17.7,0.5,24.2,1.4c8.5,1.2,11.8,2.7,11.8,5.5c0,2.8-3.3,4.3-11.8,5.5
				C117.7,154.9,109.1,155.4,100,155.4z"/>
		</g>
	</g>
	<g>
		<g>
			<path class="st2" d="M115.9,52.5c-5,0-10.6-1.1-16.9-3.9C82,40.8,69.3,41,64.7,44.5c-1,0.7-2.3,0.5-3.1-0.4
				c-0.7-1-0.5-2.3,0.4-3.1c4.2-3.2,13.5-4.8,27.2-0.8c15.7-7.8,40.6-4.5,48.7,0.4c0.7,0.4,1.2,1.1,1.2,1.9c0,0.7-0.3,1.3-0.8,1.7
				C135.4,46.7,127.5,52.5,115.9,52.5z M95.5,42.4c1.7,0.7,3.5,1.4,5.4,2.3c15.2,6.9,26.3,2,31.7-1.6C124.5,40,107.8,38.4,95.5,42.4
				z"/>
		</g>
	</g>
</g>
<g>
	<path class="st3" d="M27.7,176.7h-3.2v10H21v-10h-3.2v-3.3h9.9V176.7z"/>
	<path class="st3" d="M40.3,173.4v13.3h-3.5v-5h-4v5h-3.5v-13.3h3.5v5h4v-5H40.3z"/>
	<path class="st3" d="M42,180.1c0-4,3.2-7,7.3-7c4.1,0,7.3,3,7.3,7c0,4-3.2,7-7.3,7C45.2,187,42,184,42,180.1z M53,180
		c0-2.1-1.6-3.6-3.7-3.6c-2.1,0-3.7,1.6-3.7,3.6c0,2,1.6,3.6,3.7,3.6C51.4,183.7,53,182.1,53,180z"/>
	<path class="st3" d="M57.3,178.6c0.5,0,1.5-0.4,1.5-1.4c0-0.3-0.1-0.4-0.1-0.6c-0.7,0-1.5-0.7-1.5-1.7c0-1,0.9-2,2.1-2
		c1.3,0,2.1,1,2.1,2.6c0,1.8-1,3.6-2.8,3.6C57.8,179.2,57.3,178.8,57.3,178.6z"/>
	<path class="st3" d="M62.3,184.4l2.1-2.1c0.6,0.8,1.6,1.3,2.7,1.3c0.8,0,1.5-0.3,1.5-0.8c0-0.7-1.4-1.3-2.7-1.9
		c-1.7-0.7-3.1-1.8-3.1-3.8c0-2.3,2.2-3.9,4.7-3.9c2,0,3.6,1,4.1,2.3l-2,2c-0.4-0.7-1.4-1-2.1-1c-0.7,0-1.2,0.4-1.2,0.8
		c0,0.6,0.9,0.8,2.4,1.4c2.1,0.9,3.5,2.1,3.5,4.1c0,2.5-2.4,4.1-5,4.1C65,186.9,63,185.9,62.3,184.4z"/>
	<path class="st3" d="M78.4,180c0-3.9,3.2-7,7.3-7c1.7,0,3.6,0.8,4.9,2l-2,2.6c-0.8-0.7-1.9-1.2-2.9-1.2c-2,0-3.8,1.6-3.8,3.6
		c0,2.1,1.8,3.6,3.7,3.6c1.1,0,2.1-0.5,3-1.3l2,2.7c-1.3,1.2-3,2-5,2C81.9,187,78.4,184.2,78.4,180z"/>
	<path class="st3" d="M91.1,180.1c0-4,3.2-7,7.3-7c4.1,0,7.3,3,7.3,7c0,4-3.2,7-7.3,7C94.2,187,91.1,184,91.1,180.1z M102.1,180
		c0-2.1-1.6-3.6-3.7-3.6c-2.1,0-3.7,1.6-3.7,3.6c0,2,1.6,3.6,3.7,3.6C100.5,183.7,102.1,182.1,102.1,180z"/>
	<path class="st3" d="M106.8,180c0-3.9,3.2-7,7.3-7c1.7,0,3.6,0.8,4.9,2l-2,2.6c-0.8-0.7-1.9-1.2-2.9-1.2c-2,0-3.8,1.6-3.8,3.6
		c0,2.1,1.8,3.6,3.7,3.6c1.1,0,2.1-0.5,3-1.3l2,2.7c-1.3,1.2-3,2-5,2C110.3,187,106.8,184.2,106.8,180z"/>
	<path class="st3" d="M127.5,186.7l-3.4-5.1v5.1h-3.5v-13.3h3.5v5l3.1-5h4.1l-4.1,6.5l4.6,6.8H127.5z"/>
	<path class="st3" d="M142.2,176.7H139v10h-3.5v-10h-3.2v-3.3h9.9V176.7z"/>
	<path class="st3" d="M150.6,185.1h-5l-0.7,1.6h-3.9l6.2-13.5h1.7l6.2,13.5h-3.9L150.6,185.1z M149.4,182.6l-1.4-3.2l-1.4,3.2H149.4
		z"/>
	<path class="st3" d="M156.4,173.4h3.5v13.3h-3.5V173.4z"/>
	<path class="st3" d="M170.9,183.4v3.3h-8.6v-13.3h3.5v10H170.9z"/>
	<path class="st3" d="M171.7,184.4l2.1-2.1c0.6,0.8,1.6,1.3,2.7,1.3c0.8,0,1.5-0.3,1.5-0.8c0-0.7-1.4-1.3-2.7-1.9
		c-1.7-0.7-3.1-1.8-3.1-3.8c0-2.3,2.2-3.9,4.7-3.9c2,0,3.6,1,4.1,2.3l-2,2c-0.4-0.7-1.4-1-2.1-1c-0.7,0-1.2,0.4-1.2,0.8
		c0,0.6,0.9,0.8,2.4,1.4c2.1,0.9,3.5,2.1,3.5,4.1c0,2.5-2.4,4.1-5,4.1C174.4,186.9,172.4,185.9,171.7,184.4z"/>
</g>
</svg>
