<?xml version="1.0" encoding="utf-8"?>
<!-- Generator: Adobe Illustrator 28.6.0, SVG Export Plug-In . SVG Version: 9.03 Build 54939)  -->
<svg version="1.1" id="Laag_1" xmlns="http://www.w3.org/2000/svg" xmlns:xlink="http://www.w3.org/1999/xlink" x="0px" y="0px"
	 viewBox="0 0 200 200" style="enable-background:new 0 0 200 200;" xml:space="preserve">
<style type="text/css">
	.Slagschaduw{fill:none;}
	.Buitenste_x0020_gloed_x0020_5_x0020_pt{fill:none;}
	.Blauw_x0020_neon{fill:none;stroke:#8AACDA;stroke-width:7;stroke-linecap:round;stroke-linejoin:round;}
	.Hooglicht_x002C__x0020_chroom{fill:url(#SVGID_1_);stroke:#FFFFFF;stroke-width:0.3629;stroke-miterlimit:1;}
	.Jive_AS{fill:#FFDD00;}
	.Alyssa_AS{fill:#A6D0E4;}
	.st0{fill:#2B2E4A;}
	.st1{opacity:0.4;fill:#53354A;}
	.st2{fill:#E84545;}
	.st3{fill:#FFFFFF;}
</style>
<linearGradient id="SVGID_1_" gradientUnits="userSpaceOnUse" x1="0" y1="0" x2="6.123234e-17" y2="-1">
	<stop  offset="0" style="stop-color:#656565"/>
	<stop  offset="0.618" style="stop-color:#1B1B1B"/>
	<stop  offset="0.6292" style="stop-color:#545454"/>
	<stop  offset="0.9831" style="stop-color:#3E3E3E"/>
</linearGradient>
<path class="st0" d="M171,200H29c-16,0-29-13-29-29V29C0,13,13,0,29,0h142c16,0,29,13,29,29v142C200,187,187,200,171,200z"/>
<path class="st1" d="M199,179c-6.1-41.9-48.2-74.4-99.2-74.4c-50.6,0-92.3,31.9-99,73.3C3.7,190.6,15,200,28.6,200h142.9
	C184.6,200,195.6,191.1,199,179z"/>
<g>
	<g>
		<g>
			<g>
				<path class="st2" d="M125.9,90.1c-3.1,0-6.2-0.5-9.3-1.5c-6.3-2-11.9-6.1-15.7-11.6L65.3,25.7c-0.8-1.1-0.5-2.7,0.6-3.5
					c1.1-0.8,2.7-0.5,3.5,0.6l35.7,51.4c3.2,4.5,7.8,8,13.1,9.7c5,1.6,10.4,1.6,15.4,0c5.3-1.7,9.9-5.1,13.1-9.7l35.7-51.4
					c0.8-1.1,2.4-1.4,3.5-0.6c1.1,0.8,1.4,2.4,0.6,3.5l-35.7,51.4c-3.8,5.5-9.4,9.6-15.7,11.6C132.2,89.6,129.1,90.1,125.9,90.1z"/>
			</g>
		</g>
		<g>
			<g>
				<path class="st2" d="M125.9,172c-1.4,0-2.5-1.1-2.5-2.5V87.6c0-1.4,1.1-2.5,2.5-2.5c1.4,0,2.5,1.1,2.5,2.5v81.9
					C128.5,170.8,127.3,172,125.9,172z"/>
			</g>
		</g>
	</g>
	<g>
		<g>
			<path class="st2" d="M126,177.3c-10.5,0-20.3-0.6-27.8-1.6c-9.7-1.3-13.5-3.1-13.5-6.3c0-3.2,3.8-4.9,13.5-6.3
				c7.4-1,17.3-1.6,27.8-1.6c10.5,0,20.3,0.6,27.8,1.6c9.7,1.3,13.5,3.1,13.5,6.3c0,3.2-3.8,4.9-13.5,6.3
				C146.3,176.8,136.4,177.3,126,177.3z"/>
		</g>
	</g>
	<g>
		<g>
			<path class="st2" d="M144.3,59.1c-5.7,0-12.2-1.2-19.4-4.5c-19.6-8.9-34.3-8.7-39.6-4.7c-1.1,0.8-2.7,0.6-3.5-0.5
				c-0.8-1.1-0.6-2.7,0.5-3.5c4.9-3.7,15.5-5.5,31.2-0.9c18-9,46.7-5.1,55.9,0.5c0.8,0.4,1.3,1.3,1.3,2.2c0,0.8-0.4,1.5-0.9,2
				C166.6,52.4,157.6,59.1,144.3,59.1z M120.8,47.4c2,0.8,4,1.6,6.2,2.6c17.4,7.9,30.3,2.3,36.5-1.8
				C154.1,44.7,134.9,42.8,120.8,47.4z"/>
		</g>
	</g>
</g>
<g>
	<path class="st3" d="M27.1,90.9h-4.5v14.2h-5V90.9H13v-4.7h14.1V90.9z"/>
	<path class="st3" d="M44.9,86.2v18.9h-5V98h-5.6v7.1h-5V86.2h5v7.1h5.6v-7.1H44.9z"/>
	<path class="st3" d="M47.3,95.7c0-5.7,4.5-10,10.4-10c5.9,0,10.4,4.3,10.4,10c0,5.6-4.5,9.9-10.4,9.9
		C51.8,105.6,47.3,101.3,47.3,95.7z M63,95.7c0-2.9-2.3-5.2-5.3-5.2c-3,0-5.3,2.3-5.3,5.2c0,2.9,2.3,5.2,5.3,5.2
		C60.7,100.8,63,98.6,63,95.7z"/>
	<path class="st3" d="M69,93.6c0.7,0,2.1-0.5,2.1-2c0-0.4-0.1-0.6-0.2-0.8c-1,0-2.1-1-2.1-2.4c0-1.5,1.2-2.8,3-2.8
		c1.8,0,3,1.4,3,3.7c0,2.5-1.5,5.1-4,5.1C69.7,94.4,69,93.9,69,93.6z"/>
	<path class="st3" d="M76.2,101.9l3-3c0.8,1.2,2.3,1.9,3.8,1.9c1.1,0,2.1-0.4,2.1-1.2c0-1-1.9-1.8-3.8-2.7C79,96,77,94.4,77,91.6
		c0-3.3,3.1-5.6,6.7-5.6c2.9,0,5.1,1.4,5.9,3.2L86.7,92c-0.6-1-2-1.4-2.9-1.4c-1,0-1.8,0.5-1.8,1.2c0,0.9,1.3,1.2,3.4,2
		c3,1.2,4.9,3.1,4.9,5.8c0,3.6-3.4,5.8-7.1,5.8C80,105.4,77.2,104,76.2,101.9z"/>
</g>
<g>
	<path class="st3" d="M12.4,124.1c0-5.6,4.5-9.9,10.4-9.9c2.4,0,5.1,1.1,7,2.9l-2.9,3.7c-1.2-1.1-2.7-1.7-4.1-1.7
		c-2.9,0-5.3,2.2-5.3,5.1c0,2.9,2.5,5.1,5.2,5.1c1.6,0,3-0.8,4.2-1.8l2.9,3.8c-1.8,1.6-4.2,2.8-7.1,2.8
		C17.4,134,12.4,130,12.4,124.1z"/>
	<path class="st3" d="M30.4,124.1c0-5.7,4.5-10,10.4-10c5.9,0,10.4,4.3,10.4,10c0,5.6-4.5,9.9-10.4,9.9
		C34.9,134,30.4,129.7,30.4,124.1z M46,124.1c0-2.9-2.3-5.2-5.3-5.2c-3,0-5.3,2.3-5.3,5.2c0,2.9,2.3,5.2,5.3,5.2
		C43.7,129.2,46,127,46,124.1z"/>
	<path class="st3" d="M52.8,124.1c0-5.6,4.5-9.9,10.4-9.9c2.4,0,5.1,1.1,7,2.9l-2.9,3.7c-1.2-1.1-2.7-1.7-4.1-1.7
		c-2.9,0-5.3,2.2-5.3,5.1c0,2.9,2.5,5.1,5.2,5.1c1.6,0,3-0.8,4.2-1.8l2.9,3.8c-1.8,1.6-4.2,2.8-7.1,2.8
		C57.8,134,52.8,130,52.8,124.1z"/>
	<path class="st3" d="M82.1,133.6l-4.8-7.2v7.2h-5v-18.9h5v7.1l4.4-7.1h5.8l-5.8,9.2l6.5,9.7H82.1z"/>
	<path class="st3" d="M103,119.3h-4.5v14.2h-5v-14.2h-4.5v-4.7H103V119.3z"/>
	<path class="st3" d="M114.9,131.3h-7.1l-1,2.2h-5.5l8.8-19.2h2.4l8.8,19.2h-5.5L114.9,131.3z M113.3,127.7l-1.9-4.5l-1.9,4.5H113.3
		z"/>
	<path class="st3" d="M143.8,128.8v4.7h-12.3v-18.9h5v14.2H143.8z"/>
	<path class="st3" d="M145,130.3l3-3c0.8,1.2,2.3,1.9,3.8,1.9c1.1,0,2.1-0.4,2.1-1.2c0-1-1.9-1.8-3.8-2.7c-2.4-1-4.4-2.6-4.4-5.5
		c0-3.3,3.1-5.6,6.7-5.6c2.9,0,5.1,1.4,5.9,3.2l-2.9,2.8c-0.6-1-2-1.4-2.9-1.4c-1,0-1.8,0.5-1.8,1.2c0,0.9,1.3,1.2,3.4,2
		c3,1.2,4.9,3.1,4.9,5.8c0,3.6-3.4,5.8-7.1,5.8C148.7,133.8,145.9,132.4,145,130.3z"/>
</g>
<circle class="st3" cx="125.5" cy="108.5" r="3.5"/>
</svg>
